<?xml version="1.0" standalone="no"?>
<!DOCTYPE svg PUBLIC "-//W3C//DTD SVG 20010904//EN"
 "http://www.w3.org/TR/2001/REC-SVG-20010904/DTD/svg10.dtd">
<svg version="1.0" xmlns="http://www.w3.org/2000/svg"
 width="500.000000pt" height="500.000000pt" viewBox="0 0 500.000000 500.000000"
 preserveAspectRatio="xMidYMid meet">

<g transform="translate(0.000000,500.000000) scale(0.100000,-0.100000)"
fill="#000000" stroke="none">
<path d="M2667 4231 c-43 -10 -95 -57 -124 -114 -20 -40 -27 -71 -31 -136 -4
-65 -9 -88 -24 -103 -14 -14 -18 -27 -13 -47 5 -25 3 -29 -22 -36 -71 -17
-192 -112 -231 -180 -10 -19 -12 -18 -49 16 -40 39 -92 69 -118 69 -20 0 -20
0 20 -72 40 -73 69 -185 62 -243 -2 -22 -12 -70 -22 -108 -23 -87 -12 -135 39
-165 25 -15 38 -32 45 -59 23 -80 13 -103 -44 -103 -55 0 -92 -14 -130 -49
-16 -15 -52 -40 -80 -56 -249 -141 -403 -390 -366 -596 23 -133 112 -254 221
-301 149 -66 352 -51 519 38 36 18 67 32 69 29 2 -2 -23 -22 -57 -44 -75 -48
-165 -80 -250 -88 l-63 -6 6 -62 c10 -102 52 -305 81 -390 37 -110 96 -207
154 -254 72 -57 117 -65 279 -56 237 15 287 13 319 -11 60 -45 35 -94 -57
-112 -87 -16 -110 -33 -110 -81 0 -33 8 -47 46 -88 25 -26 36 -35 25 -19 -23
31 -27 66 -11 95 18 34 101 61 261 86 76 11 127 107 109 206 -16 88 -82 134
-190 132 -77 -2 -119 -15 -259 -79 -168 -76 -241 -71 -241 18 0 53 31 113 100
195 99 118 307 280 472 368 l60 32 -39 6 c-49 8 -135 65 -233 152 -158 142
-283 216 -433 255 -48 13 -86 25 -83 27 8 8 152 -20 219 -43 96 -33 184 -86
319 -195 136 -109 192 -139 270 -147 95 -8 161 28 246 135 75 96 113 242 92
360 -13 75 -52 169 -99 233 -52 73 -155 172 -218 210 -32 19 -75 48 -95 64
-29 22 -52 30 -100 35 -61 6 -63 7 -66 36 -6 52 16 104 53 127 56 32 66 117
26 221 -26 67 1 213 55 300 20 32 34 61 31 64 -14 13 -69 -12 -117 -53 l-52
-44 -28 37 c-44 60 -90 99 -161 136 -56 29 -65 37 -57 51 7 12 5 25 -7 43 -33
50 6 178 65 208 40 20 96 19 149 -5 43 -20 107 -24 166 -11 l30 7 -29 7 c-41
11 -91 48 -133 97 -52 61 -96 77 -166 61z"/>
</g>
</svg>
