<?xml version="1.0" encoding="utf-8"?>
<!-- Generator: Adobe Illustrator 28.1.0, SVG Export Plug-In . SVG Version: 6.00 Build 0)  -->
<svg version="1.1" id="Layer_1" xmlns="http://www.w3.org/2000/svg" xmlns:xlink="http://www.w3.org/1999/xlink" x="0px" y="0px"
	 viewBox="0 0 512 512" style="enable-background:new 0 0 512 512;" xml:space="preserve">
<path d="M115.4,472.9c29.9,13.3,70.7,10.2,104.3-7.6c7.2-3.6,13.5-6.4,13.9-5.8c0.4,0.4-4.6,4.4-11.5,8.8
	c-15.1,9.6-33.2,16.1-50.2,17.7l-12.7,1.2l1.2,12.5c0.4,3.6,0.9,7.8,1.6,12.4h170.8c8.2-5.4,16.4-10.3,24.1-14.4l12.1-6.4l-7.8-1.2
	c-9.8-1.6-27.1-13.1-46.8-30.5c-31.7-28.5-56.9-43.4-87-51.2c-9.6-2.6-17.3-5-16.7-5.4c1.6-1.6,30.5,4,44,8.6
	c19.3,6.6,37,17.3,64.1,39.2c27.3,21.9,38.6,27.9,54.2,29.5c19.1,1.6,32.3-5.6,49.4-27.1c15.1-19.3,22.7-48.6,18.5-72.3
	c-2.6-15.1-10.4-34-19.9-46.8c-10.4-14.7-31.1-34.6-43.8-42.2c-6.4-3.8-15.1-9.6-19.1-12.9c-5.8-4.4-10.4-6-20.1-7
	c-12.3-1.2-12.7-1.4-13.3-7.2c-1.2-10.4,3.2-20.9,10.6-25.5c11.3-6.4,13.3-23.5,5.2-44.4c-5.2-13.5,0.2-42.8,11.1-60.3
	c4-6.4,6.8-12.3,6.2-12.9c-2.8-2.6-13.9,2.4-23.5,10.6L324,141l-5.6-7.4c-8.8-12.1-18.1-19.9-32.3-27.3
	c-11.3-5.8-13.1-7.4-11.5-10.2c1.4-2.4,1-5-1.4-8.6c-6.6-10,1.2-35.8,13.1-41.8c8-4,19.3-3.8,29.9,1c8.6,4,21.5,4.8,33.4,2.2l6-1.4
	l-5.8-1.4c-8.2-2.2-18.3-9.6-26.7-19.5c-10.4-12.3-19.3-15.5-33.4-12.3c-8.6,2-19.1,11.5-24.9,22.9c-4,8-5.4,14.3-6.2,27.3
	c-0.8,13.1-1.8,17.7-4.8,20.7c-2.8,2.8-3.6,5.4-2.6,9.4c1,5,0.6,5.8-4.4,7.2c-14.3,3.4-38.6,22.5-46.4,36.2c-2,3.8-2.4,3.6-9.8-3.2
	c-8-7.8-18.5-13.9-23.7-13.9c-4,0-4,0,4,14.5c8,14.7,13.9,37.2,12.5,48.8c-0.4,4.4-2.4,14.1-4.4,21.7c-4.6,17.5-2.4,27.1,7.8,33.2
	c5,3,7.6,6.4,9,11.9c4.6,16.1,2.6,20.7-8.8,20.7c-11.1,0-18.5,2.8-26.1,9.8c-3.2,3-10.4,8-16.1,11.3C94.5,321,63.6,371,71,412.4
	C75.7,439.1,93.5,463.4,115.4,472.9z"/>
</svg>
